HIERARCHY
ROOT joint_0
{
	OFFSET 0.000000 0.000000 0.000000
	CHANNELS 6 Xposition Yposition Zposition Zrotation Yrotation Xrotation 
	JOINT joint_1
	{
		OFFSET 17.107422 0.519409 105.452026
		CHANNELS 3 Zrotation Yrotation Xrotation
		JOINT joint_2
		{
			OFFSET 6.110352 -1.434082 97.381958
			CHANNELS 3 Zrotation Yrotation Xrotation
			JOINT joint_3
			{
				OFFSET 6.305908 -1.739990 97.255005
				CHANNELS 3 Zrotation Yrotation Xrotation
				JOINT joint_4
				{
					OFFSET 22.074707 -0.492493 131.077026
					CHANNELS 3 Zrotation Yrotation Xrotation
					JOINT joint_5
					{
						OFFSET 34.162842 2.248718 78.700928
						CHANNELS 3 Zrotation Yrotation Xrotation
						End Site
						{
							OFFSET 0.000000 0.000000 0.000000
						}
					}
				}
				JOINT joint_6
				{
					OFFSET 17.059082 -28.836914 72.664062
					CHANNELS 3 Zrotation Yrotation Xrotation
					JOINT joint_7
					{
						OFFSET 22.639893 -134.803833 -24.691040
						CHANNELS 3 Zrotation Yrotation Xrotation
						JOINT joint_8
						{
							OFFSET 7.301758 -32.590759 -269.966064
							CHANNELS 3 Zrotation Yrotation Xrotation
							JOINT joint_9
							{
								OFFSET 35.581055 -8.517151 -242.326965
								CHANNELS 3 Zrotation Yrotation Xrotation
								End Site
								{
									OFFSET 0.000000 0.000000 0.000000
								}
							}
						}
					}
				}
				JOINT joint_10
				{
					OFFSET 7.819092 28.232056 74.432983
					CHANNELS 3 Zrotation Yrotation Xrotation
					JOINT joint_11
					{
						OFFSET -23.457031 135.063843 -22.406982
						CHANNELS 3 Zrotation Yrotation Xrotation
						JOINT joint_12
						{
							OFFSET 17.896973 48.138672 -267.131958
							CHANNELS 3 Zrotation Yrotation Xrotation
							JOINT joint_13
							{
								OFFSET 46.526367 17.567627 -239.975037
								CHANNELS 3 Zrotation Yrotation Xrotation
								End Site
								{
									OFFSET 0.000000 0.000000 0.000000
								}
							}
						}
					}
				}
			}
		}
	}
	JOINT joint_14
	{
		OFFSET 10.553467 -100.140320 -126.306030
		CHANNELS 3 Zrotation Yrotation Xrotation
		JOINT joint_15
		{
			OFFSET -52.094238 -9.565002 -436.052002
			CHANNELS 3 Zrotation Yrotation Xrotation
			JOINT joint_16
			{
				OFFSET -55.682617 -11.310120 -462.482971
				CHANNELS 3 Zrotation Yrotation Xrotation
				JOINT joint_17
				{
					OFFSET 179.119385 -5.942566 -84.087004
					CHANNELS 3 Zrotation Yrotation Xrotation
					End Site
					{
						OFFSET 0.000000 0.000000 0.000000
					}
				}
			}
		}
	}
	JOINT joint_18
	{
		OFFSET -22.235352 101.620483 -123.583984
		CHANNELS 3 Zrotation Yrotation Xrotation
		JOINT joint_19
		{
			OFFSET -38.118408 12.306396 -437.429016
			CHANNELS 3 Zrotation Yrotation Xrotation
			JOINT joint_20
			{
				OFFSET -51.789307 8.010498 -463.006004
				CHANNELS 3 Zrotation Yrotation Xrotation
				JOINT joint_21
				{
					OFFSET 170.088135 59.632324 -83.078003
					CHANNELS 3 Zrotation Yrotation Xrotation
					End Site
					{
						OFFSET 0.000000 0.000000 0.000000
					}
				}
			}
		}
	}
}
MOTION
Frames: 18
Frame Time: 0.016667
-3104.370117 974.975647 1143.729980 7.167777 8.221516 -1.192379 0.104406 5.570888 1.972661 -0.164809 -1.042118 -0.353262 -0.197425 1.009899 0.309480 1.905295 -6.728594 -3.965656 0.000000 0.000000 0.000000 1.800561 10.202389 -1.286724 -0.962607 10.356186 -2.478215 0.529070 -11.738047 3.364789 0.000000 0.000000 0.000000 -5.458442 3.450996 -1.207805 1.204772 5.655248 6.798417 2.203673 7.332226 7.370141 0.000000 0.000000 0.000000 -1.121089 -28.380404 -7.130004 -0.705514 36.741733 1.136566 2.652197 -7.467985 0.869336 0.000000 0.000000 0.000000 -3.332287 0.022784 7.889963 -2.024347 6.951831 -2.254804 -1.546619 12.331885 -5.012580 0.000000 0.000000 0.000000 
-3088.455566 971.971313 1145.483032 7.579061 8.793898 -1.356296 0.127179 5.797797 2.203363 -0.024661 -1.101769 -0.356590 -0.050481 1.046400 0.360699 1.970090 -7.201613 -4.114388 0.000000 0.000000 0.000000 2.479440 10.390745 -1.619468 -1.125430 10.718609 -2.763096 0.550368 -12.492024 4.059990 0.000000 0.000000 0.000000 -5.983745 3.463026 -1.183408 1.233087 5.701748 6.618244 2.248946 7.116736 7.579438 0.000000 0.000000 0.000000 -1.663739 -28.842547 -6.884299 -1.256939 33.028705 -0.130102 1.225327 -6.973794 0.283797 0.000000 0.000000 0.000000 -3.432727 0.444139 8.246621 -2.209790 5.936748 -1.812536 -1.576375 14.565286 -5.815307 0.000000 0.000000 0.000000 
-3072.558594 968.388184 1146.104980 7.918945 9.404111 -1.504635 0.183842 5.912731 2.440481 0.142938 -1.115322 -0.386591 0.121880 1.061441 0.423502 1.998521 -7.533025 -4.185116 0.000000 0.000000 0.000000 3.148775 10.531030 -2.131553 -1.343998 11.117011 -2.831587 0.542797 -13.310971 4.625306 0.000000 0.000000 0.000000 -6.269541 3.527189 -0.973944 1.193065 5.740429 6.499546 2.124280 6.574418 7.206677 0.000000 0.000000 0.000000 -1.711689 -29.552159 -6.663692 -1.195199 29.646884 -0.946917 0.885414 -5.975881 0.173660 0.000000 0.000000 0.000000 -3.677626 0.763540 8.700729 -2.487554 5.154983 -1.510899 -1.715098 16.565797 -6.589598 0.000000 0.000000 0.000000 
-3056.677246 964.474243 1145.821045 8.215060 10.014920 -1.623573 0.274947 6.004518 2.677035 0.331934 -1.116364 -0.423533 0.313258 1.071148 0.499167 2.001302 -7.757773 -4.200627 0.000000 0.000000 0.000000 3.825620 10.643821 -2.823689 -1.623638 11.565378 -2.775770 0.512073 -14.256722 5.145590 0.000000 0.000000 0.000000 -6.380533 3.610190 -0.645667 1.099586 5.764188 6.441593 1.853514 5.733258 6.324865 0.000000 0.000000 0.000000 -1.366668 -30.326890 -6.510009 -0.619623 26.272671 -1.550745 1.230099 -4.482833 0.374792 0.000000 0.000000 0.000000 -4.009459 1.056221 9.173105 -2.833350 4.504174 -1.264187 -1.926676 18.412255 -7.348460 0.000000 0.000000 0.000000 
-3040.666748 960.034058 1144.536987 8.568843 10.535065 -1.640104 0.365005 6.195133 2.820519 0.494749 -1.147301 -0.438888 0.478458 1.085578 0.565530 2.000831 -7.907874 -4.207029 0.000000 0.000000 0.000000 4.398512 10.718197 -3.437111 -1.947148 11.936411 -2.818380 0.460571 -15.211470 5.593226 0.000000 0.000000 0.000000 -6.366395 3.658609 -0.304206 1.017958 5.757449 6.498886 1.533586 4.666773 5.299870 0.000000 0.000000 0.000000 -0.846806 -31.027144 -6.489770 0.210623 23.181181 -1.959826 1.874395 -3.060889 0.703740 0.000000 0.000000 0.000000 -4.368024 1.348903 9.611886 -3.191165 4.084142 -1.098786 -2.168197 19.996494 -8.034740 0.000000 0.000000 0.000000 
-3024.533936 954.948730 1142.217041 8.961549 10.935198 -1.557094 0.438213 6.505627 2.879884 0.624923 -1.195797 -0.455413 0.611636 1.111752 0.619453 2.005625 -8.006618 -4.217290 0.000000 0.000000 0.000000 4.812973 10.727441 -3.799598 -2.306890 12.117882 -3.129323 0.390495 -16.096628 5.929422 0.000000 0.000000 0.000000 -6.282783 3.657996 -0.011012 0.988612 5.723371 6.668766 1.214885 3.377689 4.337158 0.000000 0.000000 0.000000 -0.234137 -31.710681 -6.579028 1.172008 20.658211 -2.082942 2.709655 -2.511154 1.083280 0.000000 0.000000 0.000000 -4.688567 1.639913 10.023113 -3.488080 3.953936 -1.042747 -2.382139 21.229080 -8.588045 0.000000 0.000000 0.000000 
-3008.339844 949.300354 1138.906006 9.335634 11.257385 -1.417080 0.509965 6.874708 2.904365 0.747799 -1.238757 -0.491402 0.737556 1.148833 0.672127 2.005320 -8.043884 -4.205507 0.000000 0.000000 0.000000 5.126700 10.675671 -4.008246 -2.707924 12.155464 -3.631548 0.303579 -16.954399 6.163950 0.000000 0.000000 0.000000 -6.112274 3.622736 0.260695 0.988239 5.667481 6.944150 0.862062 1.846971 3.287250 0.000000 0.000000 0.000000 0.557969 -32.451782 -6.743837 2.387305 18.561542 -1.970048 3.857177 -2.714129 1.568893 0.000000 0.000000 0.000000 -4.979240 1.914031 10.436488 -3.728417 4.074435 -1.088892 -2.572838 22.145560 -9.022008 0.000000 0.000000 0.000000 
-2991.598877 942.983582 1134.421021 9.853567 11.479856 -1.150685 0.561443 7.302607 2.777838 0.852469 -1.314047 -0.474073 0.850380 1.201044 0.694647 2.015798 -7.977401 -4.214033 0.000000 0.000000 0.000000 5.344626 10.638374 -4.068669 -3.128905 12.145333 -4.176525 0.205742 -17.779009 6.352894 0.000000 0.000000 0.000000 -5.764985 3.469361 0.510389 1.012499 5.512472 7.455921 0.514387 0.301450 2.253199 0.000000 0.000000 0.000000 1.269016 -32.961419 -6.995849 3.492892 16.763873 -1.937510 4.845646 -2.439401 2.001616 0.000000 0.000000 0.000000 -5.251485 2.143831 10.851184 -3.920530 4.491683 -1.273310 -2.756782 22.755214 -9.346470 0.000000 0.000000 0.000000 
-2973.751221 935.794128 1128.269043 10.664919 11.569271 -0.668083 0.554711 7.792521 2.390587 0.932464 -1.449135 -0.369152 0.950346 1.286158 0.654367 2.037953 -7.762963 -4.246433 0.000000 0.000000 0.000000 5.440043 10.700039 -3.923406 -3.565080 12.160487 -4.689266 0.091908 -18.647933 6.536531 0.000000 0.000000 0.000000 -5.129427 3.104156 0.767903 1.044602 5.170008 8.364804 0.173848 -1.079898 1.200002 0.000000 0.000000 0.000000 1.813388 -32.920448 -7.373784 4.273584 15.004304 -2.211638 5.367651 -0.519306 2.294854 0.000000 0.000000 0.000000 -5.543813 2.406310 11.259002 -4.106879 5.121346 -1.608989 -2.985065 23.039603 -9.572047 0.000000 0.000000 0.000000 
-2954.979736 927.771912 1120.514038 11.676999 11.539424 -0.027218 0.481525 8.328663 1.825215 1.005837 -1.622259 -0.232971 1.057598 1.412465 0.568223 2.055652 -7.418638 -4.256732 0.000000 0.000000 0.000000 5.434150 10.823499 -3.561174 -4.023082 12.158768 -5.228247 -0.039940 -19.566238 6.693224 0.000000 0.000000 0.000000 -4.225879 2.524540 1.012777 1.072921 4.639992 9.637276 -0.191723 -2.351749 0.032111 0.000000 0.000000 0.000000 2.331881 -32.460946 -7.827101 4.887546 13.349617 -2.659752 5.644665 2.513995 2.531164 0.000000 0.000000 0.000000 -5.848771 2.705698 11.693443 -4.272705 5.937649 -2.076245 -3.239477 23.025073 -9.698294 0.000000 0.000000 0.000000 
-2936.360107 919.515320 1112.843018 12.499526 11.554374 0.392249 0.458507 8.726053 1.465318 1.165195 -1.725127 -0.126995 1.250903 1.527548 0.502395 2.099914 -7.029649 -4.317152 0.000000 0.000000 0.000000 5.453789 10.833302 -3.239378 -4.442922 12.076338 -5.697318 -0.143007 -20.166198 6.825976 0.000000 0.000000 0.000000 -3.280127 1.832930 1.074761 1.123562 4.016774 10.937994 -0.524504 -3.596019 -0.896039 0.000000 0.000000 0.000000 2.594638 -32.411361 -7.949562 5.134286 13.225961 -2.901769 5.814037 4.260684 2.677976 0.000000 0.000000 0.000000 -5.984861 2.555570 12.358673 -4.187914 7.465192 -2.696827 -3.261607 22.901471 -9.696193 0.000000 0.000000 0.000000 
-2918.627686 911.195618 1106.118042 12.815706 11.766327 0.188875 0.623629 8.776721 1.742732 1.503084 -1.666731 -0.123792 1.602567 1.574991 0.501289 2.216268 -6.660956 -4.546045 0.000000 0.000000 0.000000 5.629193 10.643694 -3.171437 -4.769737 11.915911 -6.005034 -0.173638 -20.178860 7.004847 0.000000 0.000000 0.000000 -2.380717 1.067613 0.754921 1.221002 3.355019 12.186618 -0.786938 -4.856413 -1.336219 0.000000 0.000000 0.000000 2.287455 -33.532561 -7.317699 4.666544 16.112369 -2.502220 5.904687 2.702764 2.655737 0.000000 0.000000 0.000000 -5.789419 1.633750 13.508199 -3.663525 10.082511 -3.377190 -2.766151 22.919725 -9.563899 0.000000 0.000000 0.000000 
-2901.375244 902.580933 1099.691040 12.945015 12.004635 -0.398848 0.882434 8.766515 2.435661 1.919578 -1.600224 -0.172772 2.021902 1.572196 0.534562 2.384791 -6.277253 -4.901069 0.000000 0.000000 0.000000 5.909371 10.329058 -3.252561 -5.008032 11.697084 -6.214912 -0.141976 -19.751895 7.249805 0.000000 0.000000 0.000000 -1.420260 0.186241 0.106130 1.333146 2.608838 13.504596 -1.024305 -6.124138 -1.452856 0.000000 0.000000 0.000000 1.414970 -35.266360 -6.188888 3.532270 21.339812 -1.698714 5.893108 -0.793842 2.504487 0.000000 0.000000 0.000000 -5.431849 0.206051 14.967954 -2.921581 13.534336 -3.964464 -1.828310 23.201885 -9.414327 0.000000 0.000000 0.000000 
-2884.479492 894.697388 1094.728027 13.306903 12.095871 -0.697326 1.026771 9.118226 2.875451 2.228995 -1.672928 -0.178790 2.344659 1.598530 0.579875 2.527751 -5.790553 -5.185676 0.000000 0.000000 0.000000 6.018270 9.819131 -3.335544 -5.143631 11.234073 -6.486880 -0.070614 -19.022653 7.277511 0.000000 0.000000 0.000000 -0.670504 -0.464542 -0.399407 1.418484 1.976684 14.202717 -1.274351 -7.745479 -1.200136 0.000000 0.000000 0.000000 0.459863 -36.541195 -5.255996 2.352885 26.267856 -1.279522 5.797655 -3.854497 2.332757 0.000000 0.000000 0.000000 -5.257977 -1.692933 16.152764 -2.373681 17.677410 -4.639959 -0.806200 23.545952 -9.344726 0.000000 0.000000 0.000000 
-2867.894531 888.208252 1092.227051 13.955835 12.063542 -0.401262 0.931828 9.899190 2.820917 2.403333 -1.823030 -0.209426 2.556456 1.729944 0.633107 2.587530 -5.168434 -5.248942 0.000000 0.000000 0.000000 5.704389 8.961803 -3.287442 -5.096408 10.270430 -6.938048 0.037135 -17.828630 6.767467 0.000000 0.000000 0.000000 -0.424724 -0.542464 -0.343624 1.479498 1.666568 13.607306 -1.542730 -10.095654 -0.312020 0.000000 0.000000 0.000000 -0.186490 -37.068068 -4.749622 1.478424 29.439047 -1.646912 5.531225 -5.660483 2.142859 0.000000 0.000000 0.000000 -5.304274 -4.297407 16.859952 -2.070267 22.682829 -5.639570 0.350894 23.996540 -9.385752 0.000000 0.000000 0.000000 
-2851.657715 882.713135 1091.724976 14.704758 11.884917 0.171935 0.634126 11.108796 2.624147 2.545154 -2.041539 -0.354795 2.764350 1.895536 0.701729 2.578356 -4.438874 -5.146639 0.000000 0.000000 0.000000 5.053917 7.795818 -3.135915 -4.833676 8.866043 -7.518775 0.170635 -16.084584 5.834586 0.000000 0.000000 0.000000 -0.568782 -0.161312 0.082497 1.511813 1.629851 12.022622 -1.832415 -13.048786 1.244577 0.000000 0.000000 0.000000 -0.684219 -37.133474 -4.336223 0.668159 31.811236 -2.529371 5.045079 -7.037122 1.880745 0.000000 0.000000 0.000000 -5.437943 -7.417430 17.299157 -1.955089 28.389074 -6.772218 2.018340 24.903715 -9.608463 0.000000 0.000000 0.000000 
-2835.686523 878.359619 1092.373047 15.393699 11.627612 0.663348 0.270455 12.275371 2.523552 2.727385 -2.242880 -0.515395 3.033594 1.986955 0.767056 2.538031 -3.556030 -5.038910 0.000000 0.000000 0.000000 4.444923 6.759581 -3.054046 -4.638952 7.624583 -8.072609 0.235401 -14.812793 4.934857 0.000000 0.000000 0.000000 -0.729894 0.293248 0.432992 1.464458 1.679515 10.555235 -2.212146 -15.991289 2.697956 0.000000 0.000000 0.000000 -0.994751 -36.755445 -3.921071 -0.061665 33.452167 -3.436905 4.461574 -8.023025 1.596156 0.000000 0.000000 0.000000 -6.029069 -10.256756 17.544410 -2.471252 33.787609 -8.175483 3.014200 25.390534 -10.028086 0.000000 0.000000 0.000000 
-2819.987793 875.304871 1093.616943 16.041595 11.431796 0.914256 -0.060020 12.861523 2.624141 2.943074 -2.321928 -0.587122 3.344262 1.995960 0.820563 2.511481 -2.440588 -5.099957 0.000000 0.000000 0.000000 4.218061 6.150681 -3.200541 -4.777033 7.005275 -8.458739 0.187988 -14.817361 4.273497 0.000000 0.000000 0.000000 -0.688704 0.521446 0.439039 1.344677 1.644622 9.897352 -2.691386 -18.426626 3.471586 0.000000 0.000000 0.000000 -1.099080 -36.001897 -3.522723 -0.694823 34.340938 -4.064514 3.868809 -8.666467 1.323312 0.000000 0.000000 0.000000 -7.452801 -12.565474 17.744700 -3.905715 38.604237 -10.391023 1.560228 24.491614 -10.674423 0.000000 0.000000 0.000000 
